<?xml version="1.0" encoding="utf-8"?>
<!-- Generator: Adobe Illustrator 21.1.0, SVG Export Plug-In . SVG Version: 6.00 Build 0)  -->
<svg version="1.1" id="レイヤー_1" xmlns="http://www.w3.org/2000/svg" xmlns:xlink="http://www.w3.org/1999/xlink" x="0px"
	 y="0px" width="300px" height="80px" viewBox="0 0 300 80" style="enable-background:new 0 0 300 80;" xml:space="preserve">
<style type="text/css">
	.st0{fill:#FFFFFF;}
	.st1{fill:#FFFFFF;stroke:#FFFFFF;stroke-miterlimit:10;}
</style>
<g>
	<path class="st0" d="M89.754,68.031h-2.32c-3.047-8.93-6.762-18.996-11.145-30.199c-3.656-9.328-5.743-14.472-6.258-15.434
		c-0.352-0.633-0.773-1.119-1.266-1.459c-0.492-0.339-2.238-0.932-5.238-1.775V17.09c5.063,0.258,8.39,0.387,9.984,0.387
		c2.273,0,5.602-0.128,9.984-0.387v2.074c-0.422,0.118-0.738,0.199-0.949,0.246c-2.297,0.563-3.651,1.014-4.061,1.354
		c-0.41,0.34-0.615,0.733-0.615,1.178c0,0.234,0.035,0.492,0.105,0.773c0.421,1.712,2.177,6.788,5.267,15.229l6.672,18.395
		c2.886-7.456,5.409-14.36,7.568-20.715c2.722-7.949,4.177-12.356,4.365-13.224c0.047-0.188,0.07-0.352,0.07-0.492
		c0-0.445-0.176-0.809-0.527-1.09c-0.516-0.398-2.227-0.984-5.133-1.758V17.09c0.141,0,0.984,0.035,2.531,0.105
		c3.609,0.188,5.929,0.281,6.961,0.281c1.992,0,4.371-0.128,7.137-0.387v1.969c-2.438,0.633-3.985,1.19-4.641,1.67
		c-0.656,0.48-1.336,1.529-2.039,3.146c-1.43,3.234-5.027,12.774-10.793,28.617L89.754,68.031z"/>
	<path class="st0" d="M115.074,39.156c0-0.936,0.072-2.088,0.072-2.952c2.88-0.432,9.433-1.872,9.937-1.872
		c0.144,0,0.216,0.072,0.216,0.216c0.216,1.224,0.432,2.592,0.576,3.889l0.288,0.072c6.84-4.033,8.353-4.249,10.801-4.249
		c4.032,0,6.625,3.168,7.705,4.824h0.216c6.913-4.392,8.641-4.68,11.521-4.68c4.032,0,6.48,2.88,7.632,4.68
		c1.009,1.656,1.513,3.457,1.513,5.473c0,5.329-0.144,11.81-0.216,17.354l4.608,0.145c0,1.008,0,2.16-0.072,3.168
		c-2.16,0-4.968,0-7.417,0c-2.447,0-4.824,0.072-6.84,0.072c0-1.009,0-2.16,0.072-3.169l4.104-0.216
		c0.145,0,0.217-0.216,0.217-0.288c0-4.824,0.072-10.368,0.072-14.257c0-2.448-0.145-4.393-0.865-5.977
		c-1.008-2.088-2.88-2.809-4.896-2.809c-2.664,0-6.048,1.872-8.568,3.744c0.072,5.473-0.072,13.394-0.072,19.514l4.896,0.217
		c0,1.008,0,2.16-0.072,3.168c-2.376,0-5.256,0-7.993,0c-2.232,0-4.68,0.072-6.552,0.072c0-1.08,0-2.16,0.072-3.169l4.032-0.288
		c0.144,0,0.216-0.144,0.216-0.287c0.072-4.753,0.072-10.226,0.072-14.689c0-2.736,0-4.393-0.864-5.977
		c-1.152-2.017-2.88-2.448-4.537-2.448c-2.376,0-6.048,1.656-8.785,3.888c-0.144,6.121-0.144,13.394-0.216,19.514l5.113,0.217
		c0,1.008,0,2.16-0.072,3.168c-2.304,0-5.184,0-7.92,0c-2.232,0-4.969,0.072-7.057,0.072c0-1.08,0.072-2.232,0.072-3.24l4.249-0.217
		c0.144,0,0.288-0.144,0.288-0.287l-0.072-22.25L115.074,39.156z"/>
	<path class="st0" d="M173.465,39.084c0-0.936,0.072-2.088,0.072-3.024c3.024-0.36,10.369-1.8,10.945-1.8
		c0.145,0,0.145,0.072,0.145,0.216c0,7.993-0.145,19.73-0.145,27.434l5.041,0.145c0,1.08,0,2.16-0.072,3.168
		c-2.305,0-5.328,0-7.993,0c-2.448,0-5.112,0.072-7.561,0.072c0-1.08,0-2.16,0.072-3.169l4.824-0.216
		c0.144,0,0.288-0.144,0.288-0.359v-22.25L173.465,39.084z M185.059,23.531c0,2.232-1.584,3.816-3.816,3.816
		s-3.816-1.728-3.816-3.744s1.439-3.816,4.032-3.816C184.194,19.787,185.131,21.947,185.059,23.531z"/>
	<path class="st0" d="M198.161,60.254c0.144,0.36,0.216,0.576,0.576,0.864c1.08,0.792,3.024,1.513,4.968,1.513
		c2.089,0,3.889-0.145,5.401-1.152c1.08-0.792,2.088-2.017,2.088-4.032c0-3.673-2.16-4.104-8.208-5.905
		c-5.762-1.8-8.065-4.104-8.065-8.064c0-3.456,2.232-5.976,4.536-7.272c2.16-1.224,5.041-1.944,8.497-1.944
		c3.816,0,6.337,0.937,7.057,1.296c0.36,2.665,0.576,5.256,0.792,7.92c-1.08,0.216-2.448,0.433-3.672,0.576l-0.937-4.536
		c-0.144-0.36-0.288-0.648-0.576-0.864c-0.864-0.648-2.448-1.008-4.177-1.008c-1.871,0-3.455,0.504-4.535,1.296
		c-0.937,0.72-1.729,1.944-1.729,3.816c0,2.88,1.367,3.384,7.129,5.112c5.184,1.512,9.145,3.168,9.145,8.641
		c0,3.168-1.513,5.833-4.608,7.633c-1.944,1.224-5.185,1.8-8.642,1.8c-3.888,0-7.057-0.72-8.713-1.368
		c-0.287-2.808-0.647-5.544-1.008-8.353c1.152-0.216,2.521-0.504,3.673-0.647L198.161,60.254z"/>
	<path class="st0" d="M221.704,62.126l4.104-0.216c0.144,0,0.288-0.144,0.288-0.288c0-12.673,0-29.378,0-41.979l-5.473-0.072
		c-0.072-1.008,0-2.16,0.072-3.096c2.808-0.288,10.297-1.656,10.872-1.656c0.145,0,0.217,0.072,0.217,0.288
		c0,6.696-0.145,15.481-0.217,23.402l0.288,0.071c7.633-4.104,9.073-4.32,11.737-4.32c3.601,0,6.48,2.521,8.064,5.185
		c0.792,1.44,1.009,3.313,1.009,5.328c0,5.473-0.072,11.521-0.145,17.138l4.753,0.145c0,1.008-0.072,2.16-0.072,3.168
		c-2.232,0-4.969,0-7.417,0c-2.304,0-5.04,0.072-7.272,0.072c0-1.009,0-2.089,0.072-3.169l4.248-0.216
		c0.145,0,0.216-0.144,0.216-0.288c0.072-3.96,0.072-9.217,0.072-13.177c0-3.528-0.072-5.833-1.08-7.561
		c-1.224-1.944-3.24-2.305-4.536-2.305c-2.952,0-6.913,1.872-9.865,4.032c-0.072,5.617-0.144,13.897-0.144,19.298l5.544,0.145
		c0,1.008-0.071,2.16-0.071,3.168c-2.377,0-5.401,0-8.354,0c-2.088,0-4.824,0.072-6.984,0.072
		C221.632,64.215,221.632,63.135,221.704,62.126z"/>
</g>
<path class="st0" d="M14,57"/>
<path class="st1" d="M30.301,22.618c1.929,0.932,3.818,1.951,5.685,3.019c4.688,2.533,9.319,5.178,13.783,8.151
	c0.323,0.179,0.602,0.392,0.847,0.627c3.362-7.05,0.395-15.837-6.654-19.656c-6.86-3.716-15.047-1.347-18.641,5.247
	C26.979,20.879,28.641,21.747,30.301,22.618z"/>
<path class="st1" d="M23.244,23.331c-1.553,3.474-1.608,7.336-0.409,10.81c5.3,3.34,10.684,6.52,16.077,9.689
	c0.187,0.11,0.356,0.231,0.516,0.357c3.544-0.674,6.745-2.741,8.788-5.956C40.06,32.957,31.802,27.87,23.244,23.331z"/>
<path class="st0" d="M21.857,38.481l14.601,8.707L18.557,68.91l-8.031-4.789L21.857,38.481z M22.107,49.198l2.515,1.635l3.27-5.031
	l-2.515-1.635L22.107,49.198z"/>
<g>
	<g>
		<path class="st0" d="M14.077,64.767c-3.826,3.928-5.306,9.8,1.08,12.142c3.218,1.18,6.958,0.677,10.266,0.271
			c5.429-0.667,10.778-1.349,16.249-1.571c1.924-0.078,1.934-3.078,0-3c-4.524,0.183-9.01,0.576-13.498,1.177
			c-3.541,0.475-21.04,2.409-11.976-6.898C17.546,65.505,15.427,63.381,14.077,64.767L14.077,64.767z"/>
	</g>
</g>
</svg>
