<?xml version="1.0" encoding="utf-8"?>
<!-- Generator: Adobe Illustrator 21.1.0, SVG Export Plug-In . SVG Version: 6.00 Build 0)  -->
<svg version="1.1" id="レイヤー_1" xmlns="http://www.w3.org/2000/svg" xmlns:xlink="http://www.w3.org/1999/xlink" x="0px"
	 y="0px" width="300px" height="80px" viewBox="0 0 300 80" style="enable-background:new 0 0 300 80;" xml:space="preserve">
<style type="text/css">
	.st0{fill:#FFFFFF;}
	.st1{fill:#FFFFFF;stroke:#FFFFFF;stroke-miterlimit:10;}
</style>
<path class="st0" d="M24.945,56.884"/>
<path class="st1" d="M41.246,22.502c1.929,0.932,3.818,1.951,5.685,3.019c4.688,2.533,9.319,5.178,13.783,8.151
	c0.323,0.179,0.602,0.392,0.847,0.627c3.362-7.05,0.395-15.837-6.654-19.656c-6.86-3.716-15.047-1.347-18.641,5.247
	C37.924,20.763,39.586,21.631,41.246,22.502z"/>
<path class="st1" d="M34.189,23.215c-1.553,3.474-1.608,7.336-0.409,10.81c5.3,3.34,10.684,6.52,16.077,9.689
	c0.187,0.11,0.356,0.231,0.516,0.357c3.544-0.674,6.745-2.741,8.788-5.956C51.005,32.841,42.747,27.754,34.189,23.215z"/>
<path class="st0" d="M32.802,38.365l14.601,8.707L29.502,68.795l-8.031-4.789L32.802,38.365z M33.052,49.083l2.515,1.635l3.27-5.031
	l-2.515-1.635L33.052,49.083z"/>
<g>
	<g>
		<path class="st0" d="M25.022,64.651c-3.826,3.928-5.306,9.8,1.08,12.142c3.218,1.18,6.958,0.677,10.266,0.271
			c5.429-0.667,10.778-1.349,16.249-1.571c1.924-0.078,1.934-3.078,0-3c-4.524,0.183-9.01,0.576-13.498,1.177
			c-3.541,0.475-21.04,2.409-11.976-6.898C28.491,65.389,26.372,63.265,25.022,64.651L25.022,64.651z"/>
	</g>
</g>
<g>
	<path class="st0" d="M115.07,18.599c0.72,0.216,1.242,0.658,1.566,1.323c0.324,0.667,0.359,1.36,0.108,2.08L100.54,70.613
		c-0.181,0.541-0.505,0.982-0.972,1.324c-0.468,0.342-0.991,0.513-1.566,0.513c-0.613,0-1.144-0.171-1.593-0.513
		c-0.451-0.342-0.766-0.783-0.945-1.324L79.259,22.001c-0.252-0.72-0.216-1.413,0.108-2.08c0.324-0.666,0.846-1.107,1.566-1.323
		c0.72-0.251,1.413-0.216,2.08,0.108c0.666,0.324,1.107,0.847,1.323,1.566l13.666,40.943l13.666-40.943
		c0.216-0.72,0.656-1.242,1.323-1.566C113.656,18.383,114.349,18.347,115.07,18.599z"/>
</g>
<g>
	<path class="st0" d="M161.612,36.037c1.314,0.577,2.458,1.351,3.431,2.323c0.972,0.972,1.746,2.116,2.322,3.43
		c0.575,1.314,0.864,2.71,0.864,4.186v24.307c0,0.756-0.262,1.396-0.783,1.917c-0.522,0.522-1.161,0.783-1.918,0.783
		c-0.756,0-1.396-0.261-1.917-0.783c-0.522-0.521-0.783-1.161-0.783-1.917V45.976c0-1.513-0.522-2.79-1.566-3.835
		c-1.045-1.044-2.322-1.566-3.835-1.566h-5.401v29.708c0,0.756-0.262,1.396-0.783,1.917c-0.522,0.522-1.161,0.783-1.917,0.783
		c-0.756,0-1.396-0.261-1.917-0.783c-0.522-0.521-0.783-1.161-0.783-1.917V40.574h-10.803v29.708c0,0.756-0.262,1.396-0.783,1.917
		c-0.522,0.522-1.161,0.783-1.918,0.783c-0.756,0-1.396-0.261-1.917-0.783c-0.522-0.521-0.783-1.161-0.783-1.917V37.874
		c0-0.756,0.261-1.395,0.783-1.917c0.521-0.521,1.161-0.783,1.917-0.783h24.306C158.902,35.173,160.298,35.461,161.612,36.037z"/>
	<path class="st0" d="M179.031,21.669c0-0.756,0.261-1.395,0.783-1.917c0.521-0.521,1.161-0.783,1.917-0.783
		c0.757,0,1.396,0.262,1.918,0.783c0.521,0.522,0.783,1.162,0.783,1.917v2.701c0,0.756-0.262,1.396-0.783,1.917
		c-0.522,0.522-1.161,0.783-1.918,0.783c-0.756,0-1.396-0.261-1.917-0.783c-0.522-0.521-0.783-1.161-0.783-1.917V21.669z
		 M184.433,70.282c0,0.756-0.262,1.396-0.783,1.917c-0.522,0.522-1.161,0.783-1.918,0.783c-0.756,0-1.396-0.261-1.917-0.783
		c-0.522-0.521-0.783-1.161-0.783-1.917V37.874c0-0.756,0.261-1.395,0.783-1.917c0.521-0.521,1.161-0.783,1.917-0.783
		c0.757,0,1.396,0.262,1.918,0.783c0.521,0.522,0.783,1.162,0.783,1.917V70.282z"/>
	<path class="st0" d="M217.975,38.09c0.684,0.289,1.152,0.783,1.404,1.485s0.217,1.396-0.107,2.079
		c-0.289,0.685-0.783,1.153-1.485,1.404c-0.702,0.253-1.396,0.235-2.08-0.054c-3.456-1.62-7.129-2.431-11.019-2.431
		c-1.116,0-2.071,0.396-2.862,1.188c-0.793,0.792-1.188,1.747-1.188,2.862c0,0.793,0.207,1.513,0.621,2.161
		c0.413,0.647,0.98,1.152,1.701,1.512l13.936,6.698c1.621,0.792,2.898,1.944,3.835,3.457c1.008,1.585,1.513,3.276,1.513,5.077
		c0,1.296-0.253,2.521-0.756,3.673c-0.505,1.152-1.181,2.16-2.026,3.024s-1.846,1.54-2.997,2.025
		c-1.153,0.486-2.377,0.729-3.673,0.729c-5.438,0-10.714-0.954-15.826-2.862c-0.721-0.288-1.234-0.765-1.539-1.432
		c-0.307-0.666-0.316-1.359-0.027-2.08c0.288-0.684,0.765-1.179,1.432-1.485c0.665-0.305,1.358-0.332,2.079-0.081
		c4.465,1.693,9.092,2.539,13.882,2.539c1.115,0,2.07-0.396,2.862-1.188c0.792-0.791,1.188-1.746,1.188-2.862
		c0-0.792-0.208-1.513-0.621-2.161c-0.414-0.647-0.981-1.151-1.701-1.512l-13.936-6.698c-1.621-0.791-2.899-1.944-3.835-3.457
		c-1.009-1.584-1.513-3.275-1.513-5.077c0-1.296,0.243-2.52,0.729-3.673c0.485-1.151,1.161-2.151,2.025-2.998
		c0.864-0.846,1.872-1.521,3.024-2.025c1.152-0.504,2.377-0.756,3.673-0.756C209.333,35.173,213.762,36.145,217.975,38.09z"/>
	<path class="st0" d="M253.435,36.037c1.314,0.577,2.458,1.351,3.431,2.323c0.972,0.972,1.746,2.116,2.322,3.43
		c0.575,1.314,0.864,2.71,0.864,4.186v24.307c0,0.756-0.262,1.396-0.783,1.917c-0.522,0.522-1.161,0.783-1.918,0.783
		c-0.756,0-1.396-0.261-1.917-0.783c-0.522-0.521-0.783-1.161-0.783-1.917V45.976c0-1.513-0.522-2.79-1.566-3.835
		c-1.045-1.044-2.322-1.566-3.835-1.566h-10.803v29.708c0,0.756-0.262,1.396-0.783,1.917c-0.522,0.522-1.161,0.783-1.918,0.783
		c-0.756,0-1.396-0.261-1.917-0.783c-0.522-0.521-0.783-1.161-0.783-1.917V21.669c0-0.756,0.261-1.395,0.783-1.917
		c0.521-0.521,1.161-0.783,1.917-0.783c0.757,0,1.396,0.262,1.918,0.783c0.521,0.522,0.783,1.162,0.783,1.917v13.503h10.803
		C250.725,35.173,252.12,35.461,253.435,36.037z"/>
</g>
</svg>
