<?xml version="1.0" encoding="utf-8"?>
<!-- Generator: Adobe Illustrator 21.1.0, SVG Export Plug-In . SVG Version: 6.00 Build 0)  -->
<svg version="1.1" id="レイヤー_1" xmlns="http://www.w3.org/2000/svg" xmlns:xlink="http://www.w3.org/1999/xlink" x="0px"
	 y="0px" width="300px" height="80px" viewBox="0 0 300 80" style="enable-background:new 0 0 300 80;" xml:space="preserve">
<style type="text/css">
	.st0{fill:none;}
	.st1{enable-background:new    ;}
	.st2{fill:#555555;}
</style>
<rect x="49.545" y="4.513" class="st0" width="53.25" height="79.441"/>
<g class="st1">
	<path class="st2" d="M90.919,13.668c0.72,0.216,1.242,0.657,1.566,1.323c0.324,0.667,0.359,1.359,0.108,2.08L76.39,65.683
		c-0.181,0.541-0.505,0.982-0.972,1.324c-0.468,0.342-0.991,0.513-1.566,0.513c-0.613,0-1.144-0.171-1.593-0.513
		c-0.451-0.342-0.766-0.783-0.945-1.324L55.108,17.072c-0.252-0.721-0.216-1.413,0.108-2.08c0.324-0.666,0.846-1.107,1.566-1.323
		c0.72-0.251,1.413-0.216,2.08,0.108c0.666,0.324,1.107,0.847,1.323,1.566l13.666,40.942l13.666-40.942
		c0.216-0.72,0.656-1.242,1.323-1.566C89.506,13.453,90.199,13.417,90.919,13.668z"/>
</g>
<rect x="99.795" y="4.046" class="st0" width="147.583" height="65.888"/>
<g class="st1">
	<path class="st2" d="M136.389,30.107c1.314,0.576,2.458,1.351,3.43,2.322c0.972,0.973,1.746,2.116,2.323,3.431
		c0.576,1.314,0.864,2.71,0.864,4.186v24.307c0,0.756-0.262,1.396-0.783,1.917c-0.522,0.522-1.162,0.783-1.917,0.783
		c-0.756,0-1.396-0.261-1.917-0.783c-0.522-0.521-0.783-1.161-0.783-1.917V40.045c0-1.513-0.522-2.79-1.566-3.835
		c-1.045-1.044-2.323-1.566-3.835-1.566h-5.401v29.708c0,0.756-0.262,1.396-0.783,1.917c-0.522,0.522-1.161,0.783-1.917,0.783
		s-1.396-0.261-1.917-0.783c-0.522-0.521-0.783-1.161-0.783-1.917V34.644h-10.803v29.708c0,0.756-0.262,1.396-0.783,1.917
		c-0.522,0.522-1.161,0.783-1.917,0.783s-1.396-0.261-1.917-0.783c-0.522-0.521-0.783-1.161-0.783-1.917V31.944
		c0-0.757,0.261-1.396,0.783-1.918c0.521-0.521,1.161-0.783,1.917-0.783h24.306C133.679,29.243,135.074,29.532,136.389,30.107z"/>
	<path class="st2" d="M153.808,15.74c0-0.757,0.261-1.396,0.783-1.918c0.521-0.521,1.161-0.783,1.917-0.783
		c0.757,0,1.396,0.262,1.918,0.783c0.521,0.522,0.783,1.161,0.783,1.918v2.7c0,0.756-0.262,1.396-0.783,1.918
		c-0.522,0.522-1.161,0.783-1.918,0.783c-0.756,0-1.396-0.261-1.917-0.783c-0.522-0.521-0.783-1.162-0.783-1.918V15.74z
		 M159.209,64.353c0,0.756-0.262,1.396-0.783,1.917c-0.522,0.522-1.161,0.783-1.918,0.783c-0.756,0-1.396-0.261-1.917-0.783
		c-0.522-0.521-0.783-1.161-0.783-1.917V31.944c0-0.757,0.261-1.396,0.783-1.918c0.521-0.521,1.161-0.783,1.917-0.783
		c0.757,0,1.396,0.262,1.918,0.783c0.521,0.522,0.783,1.161,0.783,1.918V64.353z"/>
	<path class="st2" d="M192.751,32.16c0.684,0.288,1.151,0.783,1.404,1.485c0.251,0.702,0.216,1.396-0.108,2.079
		c-0.288,0.685-0.783,1.153-1.485,1.404c-0.702,0.253-1.396,0.235-2.079-0.054c-3.457-1.62-7.13-2.431-11.02-2.431
		c-1.116,0-2.07,0.396-2.862,1.188s-1.188,1.747-1.188,2.862c0,0.793,0.207,1.513,0.621,2.161c0.414,0.648,0.98,1.153,1.702,1.512
		l13.935,6.698c1.621,0.792,2.898,1.944,3.835,3.457c1.008,1.585,1.513,3.276,1.513,5.077c0,1.296-0.252,2.521-0.756,3.673
		c-0.505,1.152-1.18,2.16-2.025,3.024c-0.847,0.864-1.846,1.54-2.998,2.025c-1.153,0.486-2.377,0.729-3.673,0.729
		c-5.438,0-10.713-0.954-15.826-2.862c-0.721-0.288-1.233-0.765-1.539-1.432c-0.307-0.666-0.315-1.359-0.027-2.08
		c0.288-0.684,0.765-1.179,1.432-1.485c0.666-0.305,1.358-0.332,2.079-0.081c4.465,1.693,9.092,2.539,13.882,2.539
		c1.115,0,2.07-0.396,2.862-1.188c0.792-0.791,1.188-1.746,1.188-2.862c0-0.792-0.207-1.513-0.621-2.161
		c-0.414-0.647-0.981-1.151-1.701-1.512l-13.936-6.698c-1.62-0.791-2.899-1.944-3.835-3.457c-1.009-1.584-1.513-3.276-1.513-5.078
		c0-1.296,0.243-2.52,0.729-3.673c0.486-1.151,1.161-2.151,2.025-2.997s1.872-1.521,3.024-2.026
		c1.152-0.503,2.377-0.756,3.673-0.756C184.108,29.243,188.538,30.215,192.751,32.16z"/>
	<path class="st2" d="M228.211,30.107c1.313,0.576,2.457,1.351,3.43,2.322c0.972,0.973,1.746,2.116,2.322,3.431
		s0.864,2.71,0.864,4.186v24.307c0,0.756-0.262,1.396-0.783,1.917c-0.522,0.522-1.161,0.783-1.917,0.783
		c-0.757,0-1.396-0.261-1.918-0.783c-0.522-0.521-0.783-1.161-0.783-1.917V40.045c0-1.513-0.522-2.79-1.566-3.835
		c-1.045-1.044-2.322-1.566-3.835-1.566h-10.803v29.708c0,0.756-0.262,1.396-0.783,1.917c-0.522,0.522-1.161,0.783-1.917,0.783
		c-0.757,0-1.396-0.261-1.918-0.783c-0.522-0.521-0.783-1.161-0.783-1.917V15.74c0-0.757,0.261-1.396,0.783-1.918
		c0.521-0.521,1.161-0.783,1.918-0.783c0.756,0,1.395,0.262,1.917,0.783c0.521,0.522,0.783,1.161,0.783,1.918v13.503h10.803
		C225.501,29.243,226.896,29.532,228.211,30.107z"/>
</g>
</svg>
